<?xml version="1.0" encoding="UTF-8"?>
<svg version="1.1" xmlns="http://www.w3.org/2000/svg" width="550" height="518">
<path d="M0 0 C3.75359453 0.69421915 7.50965223 1.3740073 11.26649857 2.05037594 C14.18460773 2.57794612 17.100976 3.11467933 20.01692963 3.65402412 C21.40216325 3.9087903 22.78798992 4.1603549 24.17441559 4.40855217 C26.10353787 4.75496681 28.03011307 5.11547561 29.95654297 5.4765625 C31.04888245 5.67704697 32.14122192 5.87753143 33.2666626 6.08409119 C36.44385221 6.94746934 38.61357613 7.87374466 41.22119141 9.88696289 C43.2784906 13.66399675 43.87602113 17.73511553 44.64160156 21.94042969 C44.76869003 22.63045074 44.8957785 23.3204718 45.02671814 24.03140259 C45.44297541 26.29876708 45.85172626 28.56741281 46.26025391 30.83618164 C46.54845096 32.41615616 46.83706178 33.99605527 47.12606812 35.57588196 C47.72933568 38.87960518 48.32916745 42.18392651 48.92626953 45.48876953 C49.69262159 49.73007374 50.4651099 53.97022988 51.23984718 58.21000957 C51.83504591 61.46871237 52.42824357 64.72777657 53.02070236 67.98697853 C53.30505312 69.55118707 53.58974315 71.11533398 53.87477493 72.67941856 C54.27156363 74.85984096 54.66595167 77.04068309 55.05957031 79.22167969 C55.28448151 80.46346481 55.5093927 81.70524994 55.74111938 82.98466492 C56.22119141 85.88696289 56.22119141 85.88696289 56.22119141 87.88696289 C57.10262896 87.88582373 57.98406651 87.88468457 58.8922143 87.88351089 C111.11641881 87.81639796 163.34061876 87.76491398 215.56485775 87.7337669 C221.8334404 87.73001472 228.10202295 87.72613176 234.37060547 87.72216797 C235.61858396 87.72138104 236.86656245 87.72059411 238.15235847 87.71978333 C258.36779575 87.70672421 278.58320747 87.68306758 298.79862958 87.6555045 C319.53665419 87.62746439 340.2746654 87.61078958 361.01270819 87.60469741 C373.8124216 87.60057808 386.61206277 87.5875606 399.41175395 87.56321349 C408.18522839 87.54737353 416.95866541 87.54255859 425.73215312 87.54645876 C430.79636012 87.548383 435.86044077 87.54540286 440.9246254 87.52934647 C445.56103744 87.51475357 450.19723808 87.51400662 454.83365983 87.52426621 C456.51078051 87.52553434 458.18791436 87.52172364 459.86500913 87.51231334 C469.18442235 87.46306288 476.83852563 87.46163013 484.97119141 92.63696289 C489.7844849 97.45025638 491.46903009 100.90420323 491.57592773 107.66430664 C491.42964718 118.46420954 489.18877473 128.98403885 487.23291016 139.57446289 C486.81306077 141.89862192 486.39432849 144.22298299 485.97663879 146.54753113 C484.86371651 152.72468919 483.7362617 158.89910789 482.60568237 165.07305527 C481.44195389 171.44093254 480.29088575 177.81109517 479.13916016 184.18115234 C477.76894723 191.75620384 476.39780639 199.33107799 475.02059937 206.90486145 C472.494631 220.80104216 470.00346643 234.70223153 467.58447266 248.61743164 C467.32646437 250.09751653 467.06838414 251.57758887 466.81022644 253.05764771 C465.8956556 258.30490475 464.98175445 263.55223339 464.08309937 268.80224609 C458.07458538 303.87419137 458.07458538 303.87419137 449.22119141 310.88696289 C445.07669392 312.89423153 441.00516693 313.4245965 436.47509766 313.84399414 C435.25361778 313.96457939 435.25361778 313.96457939 434.00746155 314.08760071 C421.64038643 315.27495359 409.24974151 316.2186602 396.86499023 317.2008667 C388.5964829 317.85664468 380.32867262 318.52109852 372.06103516 319.18774414 C370.7708655 319.29171257 370.7708655 319.29171257 369.45463181 319.39778137 C356.91617278 320.40965746 344.38188252 321.4636213 331.85009766 322.55493164 C330.23244274 322.69564909 328.6147873 322.83636053 326.99713135 322.97706604 C324.54923644 323.19004949 322.10134238 323.40304274 319.65345001 323.61605549 C278.03061375 327.23654474 236.37999166 330.42079092 194.71600342 333.52810669 C193.6241851 333.60954044 192.53236679 333.6909742 191.40746307 333.77487564 C189.22522125 333.93761687 187.04297539 334.10030389 184.8607254 334.26293564 C164.93472429 335.74860849 145.01384872 337.29353233 125.09619141 338.88696289 C124.42811588 338.94037086 123.76004036 338.99377884 123.07172012 339.04880524 C115.45458006 339.6578525 107.83768454 340.26987725 100.22119141 340.88696289 C100.02923691 341.48911118 99.83728241 342.09125946 99.63951111 342.71165466 C99.38021317 343.50999222 99.12091522 344.30832977 98.85375977 345.13085938 C98.59993027 345.91863266 98.34610077 346.70640594 98.08457947 347.51805115 C96.72922151 351.23680002 94.79579847 354.55340238 92.78369141 357.94946289 C85.78010648 368.70147745 85.78010648 368.70147745 84.60400391 380.90258789 C85.49081171 383.75384336 86.80311982 385.18008883 89.22119141 386.88696289 C92.48413097 387.97460941 94.85780747 388.01404968 98.29232597 388.01724815 C99.57013841 388.0208725 100.84795084 388.02449685 102.16448486 388.02823102 C103.59068487 388.02723434 105.01688483 388.02615221 106.44308472 388.0249939 C107.95178811 388.02741104 109.46049084 388.03027302 110.96919262 388.03354323 C115.12574089 388.04131142 119.28227265 388.04291644 123.43882728 388.04359436 C127.91744475 388.04543138 132.39605251 388.05303666 136.87466431 388.06007385 C144.63886265 388.07160851 152.40305882 388.07984805 160.16726303 388.08619308 C172.43469428 388.09650832 184.70209835 388.11706867 196.96951294 388.13931274 C201.1642665 388.14679271 205.35902017 388.15420639 209.55377388 388.16160011 C211.12630545 388.16437596 211.12630545 388.16437596 212.73060533 388.16720789 C224.6687082 388.18814213 236.60681407 388.20696742 248.54492188 388.22485352 C249.63647882 388.2264917 250.72803577 388.22812988 251.85267021 388.2298177 C269.54798011 388.25611166 287.2432921 388.27474986 304.93861328 388.29144542 C323.09466626 388.30885276 341.25067817 388.3376831 359.40669835 388.37633479 C370.61201329 388.39976115 381.81726127 388.41373172 393.0226009 388.41566242 C400.69855536 388.41776829 408.37444315 388.43066803 416.0503677 388.45214175 C420.48233007 388.4641953 424.91416007 388.47130582 429.346138 388.46542931 C433.40127854 388.46014857 437.45614864 388.4685603 441.51124395 388.48798569 C442.98027092 388.49257468 444.44932418 388.49207242 445.91834591 388.4860373 C447.91168485 388.47857742 449.90506897 388.49126181 451.89837456 388.50499535 C453.00667086 388.50635188 454.11496717 388.5077084 455.25684822 388.50910604 C459.67406748 389.07215709 462.26854784 391.03730782 465.53369141 393.94946289 C468.00175634 398.24572407 467.98810163 402.04535795 467.22119141 406.88696289 C465.5377542 410.37853635 464.44385797 412.26637321 460.97451848 414.02730817 C457.79907561 415.01875756 455.18236704 415.13885604 451.85545826 415.14143848 C450.56281364 415.14727068 449.27016903 415.15310287 447.93835336 415.1591118 C446.5057615 415.15547866 445.07317012 415.15165429 443.64057922 415.1476593 C442.11721283 415.15067966 440.59384796 415.15456856 439.07048577 415.15925187 C434.88248027 415.16955593 430.69456015 415.16734391 426.50654757 415.16307127 C421.99037346 415.16060834 417.47422013 415.16961295 412.95805359 415.17710876 C404.10870904 415.1898709 395.25939482 415.19164748 386.41004262 415.1893085 C379.2163076 415.18752649 372.0225818 415.18927248 364.82884789 415.19353294 C363.29386942 415.19442573 363.29386942 415.19442573 361.72788128 415.19533655 C359.64905626 415.19654829 357.57023124 415.19776242 355.49140622 415.19897892 C335.98615183 415.20986078 316.48091471 415.20768921 296.97565933 415.20159408 C279.13509803 415.19642715 261.29459136 415.20767331 243.45404086 415.2266923 C225.1363281 415.24607022 206.81864118 415.2543266 188.50091809 415.25056905 C178.21664615 415.24865657 167.9324207 415.25114885 157.64815712 415.26528358 C148.89068555 415.27719793 140.13328905 415.27860183 131.37581644 415.26649342 C126.90878126 415.26060447 122.44188337 415.25950567 117.97485733 415.27149582 C113.88192696 415.28235394 109.78924855 415.27925211 105.69632997 415.26523414 C104.21919162 415.26258696 102.74203353 415.26495442 101.26491455 415.27297 C87.53291834 415.34228746 77.32631081 413.27226707 67.02197266 403.88305664 C58.86331782 395.45294933 56.57490432 386.59904128 56.75683594 375.14233398 C57.12352534 366.83746388 59.69293588 360.60287322 63.71337891 353.37915039 C64.16406738 352.55850098 64.61475586 351.73785156 65.07910156 350.89233398 C65.98380217 349.26412675 66.91209572 347.6487296 67.8671875 346.04956055 C74.71026058 333.90994379 70.02876648 319.86116321 67.61962891 306.92602539 C67.23054668 304.79579929 66.84242569 302.66539744 66.45518494 300.53483582 C65.61869611 295.94149239 64.77658954 291.3492289 63.93008423 286.75772095 C61.870674 275.5834858 59.84228957 264.40359579 57.81103706 253.22421455 C57.33441696 250.60193001 56.8575273 247.97969656 56.38010979 245.3575573 C51.00412396 215.82970182 45.78082005 186.27546392 40.59010553 156.71454835 C39.78181176 152.11142936 38.97265782 147.50846231 38.1630249 142.90557861 C37.05884437 136.62804436 35.95575998 130.35031839 34.85340118 124.07246399 C34.42689724 121.64432092 34.00009758 119.21622978 33.57299042 116.78819275 C31.23609317 103.50143625 28.92997486 90.21033745 26.68359375 76.90795898 C26.07234696 73.3072424 25.46053559 69.70662214 24.84859276 66.10602379 C24.2791317 62.73724916 23.71926754 59.36697322 23.15974426 55.99653625 C22.81374924 53.95692163 22.46731355 51.9173817 22.12036133 49.87792969 C21.971761 48.96356077 21.82316067 48.04919186 21.6700573 47.10711479 C20.78362629 41.96604556 19.64730326 37.52725901 17.22119141 32.88696289 C14.04511011 30.76957536 12.19609262 30.34829565 8.48388672 29.69775391 C7.30546204 29.48735977 6.12703735 29.27696564 4.91290283 29.06019592 C3.63791931 28.83931808 2.36293579 28.61844025 1.04931641 28.39086914 C-0.27499409 28.15514852 -1.59915 27.91855792 -2.92315674 27.68113708 C-7.83341273 26.802412 -12.74613094 25.93782258 -17.65930176 25.07556152 C-21.80778598 24.3472673 -25.95495459 23.61221609 -30.10056305 22.86771965 C-32.03744014 22.52268188 -33.97607838 22.18757752 -35.91473389 21.85267639 C-50.16060901 19.29846251 -50.16060901 19.29846251 -55.15380859 14.69946289 C-57.24411112 11.08163159 -57.98382752 8.06114831 -57.77880859 3.88696289 C-56.14820176 -0.82367907 -53.9247974 -3.38275179 -49.77880859 -6.11303711 C-36.43484069 -11.01890766 -13.87816236 -2.56823539 0 0 Z M63.22119141 114.88696289 C63.00778711 120.32542636 63.4621113 125.39424827 64.46337891 130.74633789 C64.65602829 131.8138327 64.65602829 131.8138327 64.85256958 132.90289307 C65.12321814 134.39251363 65.39733485 135.88150798 65.67480469 137.36987305 C66.09738786 139.64339991 66.50569895 141.91917627 66.91259766 144.19555664 C67.17868066 145.65013838 67.44557916 147.10457124 67.71337891 148.55883789 C67.83429901 149.23493103 67.95521912 149.91102417 68.07980347 150.60760498 C68.7158793 153.97192448 69.35623196 156.98395164 71.22119141 159.88696289 C73.56540373 161.05906905 74.95151375 161.01373373 77.56323242 161.01635742 C78.90956505 161.02108566 78.90956505 161.02108566 80.28309631 161.02590942 C81.25395676 161.02388519 82.2248172 161.02186096 83.22509766 161.01977539 C84.21871811 161.02073212 85.21233856 161.02168884 86.23606873 161.02267456 C88.33845076 161.02335575 90.44083489 161.02150569 92.54321289 161.01733398 C95.77381069 161.01197927 99.0042698 161.01728394 102.23486328 161.02368164 C104.27327505 161.02302096 106.31168673 161.02174 108.35009766 161.01977539 C109.32298233 161.02179962 110.295867 161.02382385 111.29823303 161.02590942 C112.63983742 161.02118118 112.63983742 161.02118118 114.00854492 161.01635742 C114.79971207 161.01556183 115.59087921 161.01476624 116.40602112 161.01394653 C118.24187633 161.08495679 118.24187633 161.08495679 119.22119141 159.88696289 C119.86923041 150.37736734 119.0599383 140.74883243 118.40869141 131.26196289 C118.3386792 130.12380127 118.26866699 128.98563965 118.1965332 127.81298828 C118.1157251 126.73138428 118.03491699 125.64978027 117.95166016 124.53540039 C117.88358154 123.56779785 117.81550293 122.60019531 117.74536133 121.60327148 C116.91304739 117.28645956 116.91304739 117.28645956 114.22119141 113.88696289 C110.49479077 113.15547285 106.81051138 113.28372091 103.02587891 113.36352539 C101.92269318 113.36822845 100.81950745 113.37293152 99.68289185 113.3777771 C96.15336203 113.39916365 92.62532173 113.45582309 89.09619141 113.51196289 C86.70948672 113.52846309 84.32276612 113.54281293 81.93603516 113.55493164 C77.5828166 113.5889535 73.22974539 113.62355809 68.87695312 113.6940918 C67.56149002 113.71338242 67.56149002 113.71338242 66.2194519 113.73306274 C64.22237977 113.66886772 64.22237977 113.66886772 63.22119141 114.88696289 Z M143.22119141 114.88696289 C142.76278564 123.70038028 143.40901748 132.53991855 144.09619141 141.32446289 C144.17482422 142.45561523 144.25345703 143.58676758 144.33447266 144.75219727 C144.85635675 152.52206878 144.85635675 152.52206878 147.22119141 159.88696289 C149.80130786 161.17702112 151.66810981 161.02103924 154.55712891 161.03222656 C155.67168457 161.03860641 156.78624023 161.04498627 157.93457031 161.05155945 C159.74707275 161.05322868 159.74707275 161.05322868 161.59619141 161.05493164 C162.83159668 161.05826004 164.06700195 161.06158844 165.33984375 161.0650177 C167.95588813 161.07008779 170.57193899 161.072426 173.18798828 161.07226562 C175.87685842 161.07218411 178.56555912 161.07916135 181.25439453 161.09277344 C185.11838032 161.11101319 188.98216699 161.11599844 192.84619141 161.11743164 C194.65869385 161.12820992 194.65869385 161.12820992 196.5078125 161.13920593 C197.62236816 161.1361293 198.73692383 161.13305267 199.88525391 161.12988281 C200.86961426 161.13130783 201.85397461 161.13273285 202.86816406 161.13420105 C205.41118158 161.11653597 205.41118158 161.11653597 207.22119141 158.88696289 C207.40910996 155.83663868 207.47664953 152.87866616 207.45166016 149.82836914 C207.45120193 148.92827621 207.45074371 148.02818329 207.45027161 147.10081482 C207.44724751 145.19512618 207.43935651 143.28944005 207.42700195 141.38378906 C207.40878734 138.4648361 207.40649197 135.54620103 207.40673828 132.62719727 C207.40182147 130.77758514 207.39599244 128.92797518 207.38916016 127.07836914 C207.38804733 126.20330215 207.38693451 125.32823517 207.38578796 124.426651 C207.37940811 123.61248215 207.37302826 122.79831329 207.36645508 121.95947266 C207.36264328 121.2438063 207.35883148 120.52813995 207.35490417 119.79078674 C207.28485341 117.66297423 207.28485341 117.66297423 206.22119141 114.88696289 C203.54641076 113.54957257 201.49718286 113.7598196 198.50219727 113.75756836 C197.3043309 113.7544162 196.10646454 113.75126404 194.87229919 113.74801636 C192.9238485 113.7510527 192.9238485 113.7510527 190.93603516 113.75415039 C189.59607424 113.75347707 188.25611345 113.75250681 186.91615295 113.75125122 C184.10758298 113.74977608 181.2990448 113.75192326 178.49047852 113.7565918 C174.88322138 113.76229449 171.27603856 113.75900553 167.66878414 113.75301933 C164.90222102 113.74941346 162.13567565 113.75055233 159.36911201 113.75314713 C157.38978655 113.75414222 155.4104604 113.75109601 153.43113708 113.74801636 C151.63906578 113.7527446 151.63906578 113.7527446 149.81079102 113.75756836 C148.75315048 113.75836395 147.69550995 113.75915955 146.6058197 113.75997925 C144.26725193 113.61806718 144.26725193 113.61806718 143.22119141 114.88696289 Z M233.22119141 114.88696289 C233.11729338 117.97945712 233.08032175 121.04429598 233.09619141 124.13696289 C233.0995752 125.06758545 233.10295898 125.99820801 233.10644531 126.95703125 C233.15575495 133.79214996 233.31834086 140.61987245 233.59619141 147.44946289 C233.64235596 148.7773584 233.64235596 148.7773584 233.68945312 150.13208008 C233.72828613 150.95998047 233.76711914 151.78788086 233.80712891 152.64086914 C233.8385498 153.36604736 233.8699707 154.09122559 233.90234375 154.83837891 C234.26434328 157.16421204 235.13544068 158.81315026 236.22119141 160.88696289 C243.60119291 160.95645918 250.98112391 161.00977203 258.3613863 161.04239941 C261.78832363 161.05805863 265.21503717 161.07930093 268.6418457 161.11328125 C272.58102748 161.15209804 276.52011849 161.16667005 280.45947266 161.17993164 C282.306455 161.20315742 282.306455 161.20315742 284.19075012 161.22685242 C285.90218452 161.22719231 285.90218452 161.22719231 287.64819336 161.22753906 C289.15709892 161.23753181 289.15709892 161.23753181 290.69648743 161.24772644 C293.23633334 161.07539726 293.23633334 161.07539726 295.04722595 159.63267517 C296.50763362 157.46101706 296.590234 156.22113063 296.57763672 153.61499023 C296.58063782 152.75755219 296.58363892 151.90011414 296.58673096 151.01669312 C296.57438416 150.09474152 296.56203735 149.17278992 296.54931641 148.22290039 C296.54744324 147.27508698 296.54557007 146.32727356 296.54364014 145.35073853 C296.53691892 143.34845458 296.52300305 141.34618379 296.50244141 139.34399414 C296.47124297 136.26704818 296.46146686 133.19061393 296.45556641 130.11352539 C296.44639841 128.17081076 296.43602329 126.22810138 296.42431641 124.28540039 C296.42006653 123.35940033 296.41581665 122.43340027 296.41143799 121.4793396 C296.40183044 120.62820587 296.3922229 119.77707214 296.38232422 118.90014648 C296.37208221 117.77121475 296.37208221 117.77121475 296.3616333 116.61947632 C296.40699567 114.85687966 296.40699567 114.85687966 295.22119141 113.88696289 C293.32420292 113.78780495 291.42350354 113.75896975 289.52392578 113.75756836 C288.30596313 113.7544162 287.08800049 113.75126404 285.83312988 113.74801636 C284.49373336 113.74980614 283.15433716 113.75185709 281.81494141 113.75415039 C280.45113101 113.75347729 279.08732073 113.75250722 277.72351074 113.75125122 C274.86188619 113.74977451 272.00029281 113.75192792 269.13867188 113.7565918 C265.46300527 113.76228909 261.78741167 113.75900993 258.11174774 113.75301933 C255.29457037 113.74941298 252.47741043 113.75055264 249.66023254 113.75314713 C248.30459077 113.75381619 246.94894744 113.75298868 245.5933075 113.75066757 C243.70169096 113.74813988 241.81006892 113.75267275 239.91845703 113.75756836 C238.8400354 113.75836395 237.76161377 113.75915955 236.6505127 113.75997925 C234.27249961 113.61257743 234.27249961 113.61257743 233.22119141 114.88696289 Z M323.22119141 115.88696289 C322.63403987 118.46846859 322.63403987 118.46846859 322.54541016 121.53149414 C322.48144043 122.70147949 322.4174707 123.87146484 322.3515625 125.0769043 C322.12911669 131.57782048 322.03688461 138.06989959 322.03369141 144.57446289 C322.02151187 145.94360522 322.00914294 147.31274588 321.99658203 148.68188477 C321.99464844 149.97030273 321.99271484 151.2587207 321.99072266 152.58618164 C321.98661377 153.74980225 321.98250488 154.91342285 321.97827148 156.11230469 C321.93405795 159.02832368 321.93405795 159.02832368 324.22119141 160.88696289 C326.77022434 161.18002 326.77022434 161.18002 329.77246094 161.11401367 C330.93351349 161.11386261 332.09456604 161.11371155 333.290802 161.11355591 C335.17833694 161.09807205 335.17833694 161.09807205 337.10400391 161.08227539 C339.03081497 161.07803055 339.03081497 161.07803055 340.99655151 161.07369995 C344.41281907 161.06606098 347.82891677 161.04641042 351.24511719 161.02429199 C354.73060813 161.00383913 358.21612651 160.99469945 361.70166016 160.98461914 C368.54157372 160.96316464 375.38137441 160.9290256 382.22119141 160.88696289 C384.06734064 157.4292567 384.58270805 154.79701721 384.85400391 150.86352539 C384.93779297 149.67629883 385.02158203 148.48907227 385.10791016 147.26586914 C385.18654297 146.02708008 385.26517578 144.78829102 385.34619141 143.51196289 C385.43255859 142.3118457 385.51892578 141.11172852 385.60791016 139.87524414 C386.16977804 131.57208539 386.62504507 123.20819104 386.22119141 114.88696289 C384.48278754 113.14855902 382.10486459 113.75039588 379.73925781 113.74169922 C378.56779205 113.73531937 377.39632629 113.72893951 376.18936157 113.72236633 C374.91338104 113.72125351 373.63740051 113.72014069 372.32275391 113.71899414 C371.02171722 113.71566574 369.72068054 113.71233734 368.38021851 113.70890808 C365.62114636 113.70291018 362.86210556 113.7010688 360.10302734 113.70166016 C356.56650451 113.7017617 353.03018283 113.68812112 349.49370766 113.67088795 C346.12421987 113.65709589 342.75476959 113.65767913 339.38525391 113.65649414 C338.11332184 113.64930862 336.84138977 113.64212311 335.53091431 113.63471985 C334.35314423 113.63779648 333.17537415 113.64087311 331.96191406 113.64404297 C330.92346344 113.64261795 329.88501282 113.64119293 328.81509399 113.63972473 C325.98431728 113.7030885 325.98431728 113.7030885 323.22119141 115.88696289 Z M414.22119141 114.88696289 C410.39141969 128.39754644 409.04315592 145.96970648 410.22119141 159.88696289 C411.74389837 161.40966985 413.11031408 161.03618234 415.234375 161.06396484 C416.08550873 161.07680008 416.93664246 161.08963531 417.81356812 161.1028595 C419.20256821 161.1139399 419.20256821 161.1139399 420.61962891 161.12524414 C422.03847885 161.13735176 422.03847885 161.13735176 423.48599243 161.14970398 C425.4917822 161.16356146 427.49759571 161.17427613 429.50341797 161.18212891 C432.57646166 161.19935231 435.64843281 161.24322452 438.72119141 161.28735352 C440.66649597 161.29747895 442.6118097 161.30599552 444.55712891 161.31274414 C445.9400563 161.33900627 445.9400563 161.33900627 447.35092163 161.36579895 C452.10165612 161.44836045 452.10165612 161.44836045 456.20678711 159.40917969 C457.6925354 155.71501228 458.42879078 152.0193906 459.11572266 148.10571289 C459.34952888 146.82996399 459.34952888 146.82996399 459.58805847 145.52844238 C459.91358228 143.73406402 460.23347382 141.93865593 460.5480957 140.14233398 C461.0325432 137.39347806 461.54265954 134.65023817 462.05517578 131.90649414 C462.36858583 130.16067992 462.6804863 128.41459388 462.99072266 126.66821289 C463.22176445 125.43838684 463.22176445 125.43838684 463.45747375 124.18371582 C464.17522358 119.96559705 464.37811706 117.58059713 462.22119141 113.88696289 C455.70671414 113.86166584 449.19224947 113.84411845 442.67773438 113.83203125 C440.46028164 113.8269938 438.24283225 113.82016367 436.02539062 113.81152344 C432.84325336 113.79943217 429.6611599 113.79372879 426.47900391 113.78930664 C424.98519699 113.78156471 424.98519699 113.78156471 423.46121216 113.77366638 C422.54040863 113.77359085 421.6196051 113.77351532 420.67089844 113.7734375 C419.45178268 113.77010658 419.45178268 113.77010658 418.20803833 113.76670837 C416.14591782 113.76111631 416.14591782 113.76111631 414.22119141 114.88696289 Z M76.22119141 185.88696289 C75.9492865 191.98669621 76.6590916 197.67638443 77.68212891 203.67993164 C77.83275787 204.58898758 77.98338684 205.49804352 78.13858032 206.43464661 C78.45657638 208.34367901 78.77778348 210.25217906 79.10205078 212.16015625 C79.59624865 215.07480053 80.07737159 217.99139522 80.55712891 220.90844727 C80.86885156 222.76990573 81.18132571 224.63123854 81.49462891 226.49243164 C81.63742279 227.36022751 81.78021667 228.22802338 81.92733765 229.12211609 C82.96250149 235.18683587 82.96250149 235.18683587 85.22119141 240.88696289 C92.13046755 244.34160096 104.65361686 241.81863037 112.34619141 241.51196289 C113.71481323 241.46579834 113.71481323 241.46579834 115.11108398 241.41870117 C115.97499756 241.37986816 116.83891113 241.34103516 117.72900391 241.30102539 C118.49873535 241.26960449 119.2684668 241.23818359 120.06152344 241.20581055 C122.44678725 240.85365652 124.13406005 240.06953235 126.22119141 238.88696289 C126.50228064 229.42362537 126.05361914 220.07514966 125.34619141 210.63696289 C125.26771973 209.54915527 125.18924805 208.46134766 125.10839844 207.34057617 C124.89576963 195.24127875 124.89576963 195.24127875 120.22119141 184.88696289 C118.28999155 184.58895961 118.28999155 184.58895961 116.06274414 184.64404297 C115.20523056 184.64096634 114.34771698 184.63788971 113.46421814 184.63471985 C112.07354881 184.64549812 112.07354881 184.64549812 110.65478516 184.65649414 C109.23094261 184.65718147 109.23094261 184.65718147 107.77833557 184.65788269 C105.77009838 184.66090651 103.76186357 184.66879665 101.75366211 184.68115234 C98.66788492 184.6994085 95.58240758 184.70166207 92.49658203 184.70141602 C90.54931379 184.70633106 88.6020476 184.71215932 86.65478516 184.71899414 C85.26107948 184.72066338 85.26107948 184.72066338 83.83921814 184.72236633 C82.55767601 184.73193611 82.55767601 184.73193611 81.25024414 184.74169922 C80.49460678 184.74551102 79.73896942 184.74932281 78.96043396 184.75325012 C77.19175919 184.69945379 77.19175919 184.69945379 76.22119141 185.88696289 Z M151.22119141 184.88696289 C149.09152958 188.08145563 148.99228892 188.57741109 149.23779297 192.17138672 C149.2915509 193.03270706 149.34530884 193.8940274 149.4006958 194.78144836 C149.4703656 195.70958847 149.5400354 196.63772858 149.61181641 197.59399414 C149.67649109 198.55214523 149.74116577 199.51029633 149.80780029 200.4974823 C149.94731121 202.52619839 150.09225271 204.55454719 150.2421875 206.58251953 C150.46946959 209.67602744 150.67673459 212.77039778 150.88134766 215.86547852 C151.01947276 217.83756798 151.15875814 219.8095766 151.29931641 221.78149414 C151.36088928 222.70356155 151.42246216 223.62562897 151.48590088 224.57563782 C151.79236231 232.30387286 151.79236231 232.30387286 155.22119141 238.88696289 C156.63735365 238.9283811 158.0557343 238.89710908 159.47119141 238.83618164 C160.83147461 238.77926147 160.83147461 238.77926147 162.21923828 238.72119141 C163.20988281 238.672771 164.20052734 238.62435059 165.22119141 238.57446289 C166.23761719 238.52668701 167.25404297 238.47891113 168.30126953 238.4296875 C176.11531304 238.03934289 183.91957728 237.53678714 191.72119141 236.94946289 C192.76404297 236.87493896 193.80689453 236.80041504 194.88134766 236.72363281 C195.87005859 236.6447583 196.85876953 236.56588379 197.87744141 236.48461914 C198.74175781 236.41766846 199.60607422 236.35071777 200.49658203 236.28173828 C203.84685583 235.79630882 206.98603084 234.87063332 210.22119141 233.88696289 C210.12896352 227.39052447 210.02166344 220.89446124 209.90380859 214.3984375 C209.86549124 212.18788321 209.83064326 209.97726597 209.79931641 207.76660156 C209.75372589 204.59164919 209.69572138 201.41713117 209.63525391 198.24243164 C209.6237027 197.25172165 209.61215149 196.26101166 209.60025024 195.24028015 C209.58038055 194.31955215 209.56051086 193.39882416 209.54003906 192.45019531 C209.52671539 191.63967209 209.51339172 190.82914886 209.49966431 189.99406433 C209.33895364 187.58596098 209.33895364 187.58596098 207.22119141 184.88696289 C204.77467743 184.42752158 204.77467743 184.42752158 201.88525391 184.4987793 C200.77069824 184.48932281 199.65614258 184.47986633 198.5078125 184.47012329 C197.29947754 184.47619598 196.09114258 184.48226868 194.84619141 184.48852539 C193.61078613 184.48565521 192.37538086 184.48278503 191.10253906 184.47982788 C187.81518863 184.47725867 184.528261 184.48936211 181.2409668 184.50610352 C179.22316964 184.51195715 177.2057639 184.50612566 175.18798828 184.49584961 C171.32386955 184.47737234 167.4603339 184.47954795 163.59619141 184.48852539 C161.78368896 184.47941635 161.78368896 184.47941635 159.93457031 184.47012329 C158.26273682 184.48430801 158.26273682 184.48430801 156.55712891 184.4987793 C155.57276855 184.50116608 154.5884082 184.50355286 153.57421875 184.50601196 C152.79771973 184.63172577 152.0212207 184.75743958 151.22119141 184.88696289 Z M235.22119141 186.88696289 C234.38696875 194.9605415 235.32759286 203.47523302 235.65869141 211.57446289 C235.69776611 212.53570068 235.73684082 213.49693848 235.77709961 214.48730469 C235.35645807 224.83231228 235.35645807 224.83231228 238.22119141 233.88696289 C248.0167559 234.33641046 257.86334074 233.76348611 267.64013672 233.14233398 C269.74744206 233.01031838 271.85525238 232.89177172 273.96337891 232.77368164 C275.33061615 232.68985369 276.69780594 232.60524725 278.06494141 232.51977539 C279.2734375 232.44645996 280.48193359 232.37314453 281.72705078 232.29760742 C285.43623063 231.86169067 288.70746234 231.15628942 292.22119141 229.88696289 C294.85923493 225.9298976 294.50860436 222.50600859 294.48681641 217.91430664 C294.48872986 217.03545303 294.49064331 216.15659943 294.49261475 215.25111389 C294.49397526 213.39429437 294.49028815 211.53746529 294.48193359 209.68066406 C294.47121936 206.83189654 294.48183991 203.98375781 294.49462891 201.13500977 C294.49330754 199.33227399 294.49074562 197.52953861 294.48681641 195.72680664 C294.49086487 194.8715892 294.49491333 194.01637177 294.49908447 193.13523865 C294.67367206 188.5325056 294.67367206 188.5325056 292.22119141 184.88696289 C289.80901718 184.58039957 289.80901718 184.58039957 286.97705078 184.62817383 C285.88251587 184.62186951 284.78798096 184.61556519 283.66027832 184.60906982 C281.88058655 184.61514252 281.88058655 184.61514252 280.06494141 184.62133789 C278.85173218 184.61942444 277.63852295 184.61751099 276.3885498 184.61553955 C273.81957797 184.61417655 271.25059928 184.61788097 268.68164062 184.6262207 C264.73763637 184.63691829 260.79408766 184.62632895 256.85009766 184.61352539 C254.35921123 184.61484696 251.86832509 184.61740931 249.37744141 184.62133789 C248.19098022 184.61728943 247.00451904 184.61324097 245.78210449 184.60906982 C244.14030212 184.61852631 244.14030212 184.61852631 242.46533203 184.62817383 C241.01543884 184.63056061 241.01543884 184.63056061 239.53625488 184.63299561 C237.02706775 184.6638989 237.02706775 184.6638989 235.22119141 186.88696289 Z M322.22119141 184.88696289 C319.58602448 188.83971329 319.91550833 192.27088447 319.92041016 196.85961914 C319.91612503 197.73847275 319.9118399 198.61732635 319.90742493 199.52281189 C319.90168402 201.37961973 319.90117961 203.23645007 319.90551758 205.09326172 C319.90868334 207.9422 319.88519588 210.79010573 319.85986328 213.63891602 C319.85759093 215.44164908 319.85688649 217.24438494 319.85791016 219.04711914 C319.84870041 219.90233658 319.83949066 220.75755402 319.83000183 221.63868713 C319.81551322 224.28285183 319.81551322 224.28285183 320.22119141 227.88696289 C324.00192972 230.4074551 326.74070889 229.9928472 331.08056641 229.71508789 C332.25271698 229.65136993 332.25271698 229.65136993 333.44854736 229.58636475 C335.1098718 229.4937685 336.77090971 229.39590543 338.43164062 229.29321289 C340.91955189 229.1401401 343.4079122 229.00424648 345.89697266 228.87133789 C350.67700811 228.60502402 355.44895506 228.26730349 360.22119141 227.88696289 C360.96618896 227.83032471 361.71118652 227.77368652 362.47875977 227.71533203 C364.56859324 227.54516688 366.65159609 227.34030432 368.73681641 227.12133789 C369.92049805 227.005 371.10417969 226.88866211 372.32373047 226.76879883 C375.3436597 226.13260084 375.3436597 226.13260084 377.06494141 223.73950195 C378.40679268 220.42907327 378.86044589 217.5683294 379.20556641 214.01196289 C379.27028137 213.36501465 379.33499634 212.71806641 379.40167236 212.05151367 C379.53509702 210.6905904 379.66250126 209.32906475 379.78417969 207.96704102 C379.97076313 205.89172653 380.17842291 203.81932432 380.38916016 201.74633789 C381.30237273 193.77228955 381.30237273 193.77228955 380.22119141 185.88696289 C378.50595822 184.1717297 376.24919441 184.74175351 373.90698242 184.72583008 C372.77233047 184.71622253 371.63767853 184.70661499 370.46864319 184.69671631 C369.23327316 184.69246643 367.99790314 184.68821655 366.72509766 184.68383789 C365.46608139 184.67813782 364.20706512 184.67243774 362.90989685 184.66656494 C360.24075703 184.65709782 357.57173013 184.65020972 354.90258789 184.64672852 C351.47797591 184.64124003 348.0537608 184.6172082 344.62927341 184.58875656 C341.36957792 184.56568398 338.10986341 184.5636841 334.85009766 184.55883789 C333.61675186 184.54649109 332.38340607 184.53414429 331.11268616 184.52142334 C329.40598 184.52592499 329.40598 184.52592499 327.66479492 184.53051758 C326.65965347 184.52687195 325.65451202 184.52322632 324.61891174 184.51947021 C323.43204018 184.70137909 323.43204018 184.70137909 322.22119141 184.88696289 Z M407.22119141 186.88696289 C406.82322771 189.57429567 406.53939804 192.18367831 406.33447266 194.88696289 C406.23527779 196.07418945 406.23527779 196.07418945 406.13407898 197.28540039 C405.9962429 198.95952652 405.86288179 200.63402617 405.73364258 202.30883789 C405.53441755 204.8776001 405.31935488 207.44467365 405.10205078 210.01196289 C404.97024798 211.63688664 404.83935774 213.26188473 404.70947266 214.88696289 C404.64496414 215.65782227 404.58045563 216.42868164 404.51399231 217.22290039 C404.10119725 221.17506247 404.10119725 221.17506247 405.22119141 224.88696289 C410.05498923 224.65418779 414.88832352 224.41566349 419.72119141 224.16430664 C423.13737447 223.98717564 426.55286124 223.83199253 429.97119141 223.70336914 C431.38787092 223.63985299 432.80453838 223.57606711 434.22119141 223.51196289 C435.47931641 223.46297852 436.73744141 223.41399414 438.03369141 223.36352539 C441.52982942 222.84081848 442.70284499 222.29491248 445.22119141 219.88696289 C446.2226333 217.35802217 446.2226333 217.35802217 446.70556641 214.44165039 C446.91826172 213.36399414 447.13095703 212.28633789 447.35009766 211.17602539 C447.55505859 210.04938477 447.76001953 208.92274414 447.97119141 207.76196289 C448.19162109 206.65852539 448.41205078 205.55508789 448.63916016 204.41821289 C449.83916243 198.1424246 450.56653956 192.27590367 450.22119141 185.88696289 C448.10285106 183.76862254 443.37515767 184.72277176 440.44384766 184.71899414 C439.56216415 184.71566574 438.68048065 184.71233734 437.77207947 184.70890808 C435.90331546 184.70383506 434.03454237 184.70149987 432.16577148 184.70166016 C429.29932796 184.69947481 426.43326981 184.68132634 423.56689453 184.66235352 C421.7550469 184.6594195 419.94319742 184.65743476 418.13134766 184.65649414 C417.26985611 184.64930862 416.40836456 184.64212311 415.52076721 184.63471985 C410.8912906 184.43335843 410.8912906 184.43335843 407.22119141 186.88696289 Z M415.72119141 247.88696289 C414.42181641 247.98235352 413.12244141 248.07774414 411.78369141 248.17602539 C408.59599078 248.41041514 405.40851186 248.64746799 402.22119141 248.88696289 C400.10238501 255.1543566 399.5865024 261.31197288 399.09619141 267.88696289 C399.00982422 268.94141602 398.92345703 269.99586914 398.83447266 271.08227539 C398.60285387 274.01611341 398.40265173 276.94964014 398.22119141 279.88696289 C398.16866211 280.61399414 398.11613281 281.34102539 398.06201172 282.09008789 C397.94763466 284.65213409 398.03962942 286.52456516 399.19775391 288.83618164 C402.53763226 290.57059723 405.95886626 290.00307309 409.59619141 289.69946289 C410.79598633 289.61317627 410.79598633 289.61317627 412.02001953 289.52514648 C422.23779506 288.87832931 422.23779506 288.87832931 432.22119141 286.88696289 C434.43696848 283.56329729 434.83626468 281.40711265 435.51025391 277.49633789 C435.83896484 275.59561523 435.83896484 275.59561523 436.17431641 273.65649414 C436.33963867 272.66576904 436.33963867 272.66576904 436.50830078 271.6550293 C436.84295148 269.65631349 437.19132042 267.66035253 437.54150391 265.66430664 C438.56227423 259.66728096 439.46785529 253.991656 439.22119141 247.88696289 C438.08444981 246.5240311 438.08444981 246.5240311 435.06494141 246.76196289 C428.60358325 246.84272987 422.16203371 247.4025906 415.72119141 247.88696289 Z M360.26416016 250.15649414 C359.40236649 250.19755783 358.54057281 250.23862152 357.65266418 250.28092957 C355.83282229 250.3695425 354.01313365 250.46135329 352.19360352 250.55615234 C349.42911159 250.69841208 346.66420687 250.82555348 343.89892578 250.95141602 C342.12479131 251.03969043 340.35070084 251.12885452 338.57666016 251.21899414 C337.75868454 251.25555618 336.94070892 251.29211823 336.09794617 251.32978821 C327.12412228 251.69796996 327.12412228 251.69796996 319.23950195 255.46801758 C317.70118651 259.12220827 317.85384192 262.69635939 317.92822266 266.59008789 C317.9324675 267.42787781 317.93671234 268.26566772 317.94108582 269.12884521 C317.95784733 271.79854791 317.99549429 274.46748926 318.03369141 277.13696289 C318.04874154 278.94945197 318.06242937 280.76195291 318.07470703 282.57446289 C318.10774251 287.0122552 318.15950698 291.44948006 318.22119141 295.88696289 C321.19166945 296.87712224 322.57436112 296.92782236 325.61328125 296.66503906 C326.49785004 296.59133591 327.38241882 296.51763275 328.29379272 296.44169617 C329.24694366 296.35531387 330.2000946 296.26893158 331.18212891 296.17993164 C332.16484772 296.09447586 333.14756653 296.00902008 334.1600647 295.92097473 C336.23996394 295.73822359 338.31958127 295.5522396 340.39892578 295.36328125 C343.57584241 295.07630107 346.75379498 294.80422161 349.93212891 294.53344727 C351.95304264 294.35401192 353.97387895 294.17370203 355.99462891 293.99243164 C357.41828262 293.87196724 357.41828262 293.87196724 358.87069702 293.74906921 C366.10124169 293.32069668 366.10124169 293.32069668 372.22119141 289.88696289 C372.74871547 286.38761882 372.98494407 282.84984774 373.28369141 279.32446289 C373.37312012 278.28990967 373.46254883 277.25535645 373.5546875 276.18945312 C374.24224933 267.72982337 374.44282237 259.37050365 374.22119141 250.88696289 C369.51103229 249.63222439 365.0780507 249.90743235 360.26416016 250.15649414 Z M247.22119141 256.88696289 C246.3676709 256.94770996 245.51415039 257.00845703 244.63476562 257.07104492 C242.27490806 257.24702012 242.27490806 257.24702012 239.22119141 257.88696289 C236.06581183 262.62003226 237.01434789 267.87458274 237.15917969 273.39135742 C237.20378328 275.18638859 237.23728244 276.98170829 237.26367188 278.77709961 C237.31142443 281.87707747 237.38818531 284.97524418 237.47119141 288.07446289 C237.48512939 289.07832031 237.49906738 290.08217773 237.51342773 291.11645508 C237.545896 292.06552734 237.57836426 293.01459961 237.61181641 293.99243164 C237.63276367 294.8395874 237.65371094 295.68674316 237.67529297 296.55957031 C238.43158731 299.78396831 239.53768678 300.96512034 242.22119141 302.88696289 C245.31738527 303.3039971 245.31738527 303.3039971 248.76025391 302.94555664 C250.05568115 302.85773926 251.3511084 302.76992188 252.68579102 302.67944336 C254.07267954 302.5621571 255.45947888 302.44381201 256.84619141 302.32446289 C258.25180436 302.21826129 259.65748543 302.11295733 261.06323242 302.00854492 C271.21862437 301.2174622 281.24133823 299.94043062 291.22119141 297.88696289 C292.23169314 288.28719645 292.33156004 278.71896987 292.34619141 269.07446289 C292.35070312 267.80376953 292.35521484 266.53307617 292.35986328 265.22387695 C292.35792969 264.03375 292.35599609 262.84362305 292.35400391 261.61743164 C292.35231201 259.99937622 292.35231201 259.99937622 292.35058594 258.34863281 C292.49933018 255.94209666 292.49933018 255.94209666 291.22119141 254.88696289 C276.65801495 253.85018046 261.72181257 255.69007904 247.22119141 256.88696289 Z M201.12036133 259.13061523 C200.29908249 259.18422211 199.47780365 259.23782898 198.63163757 259.2930603 C194.8808848 259.54475485 191.13037937 259.79979181 187.38012695 260.05883789 C185.40475708 260.19387262 183.42916714 260.32572705 181.45336914 260.4543457 C178.59806323 260.64045238 175.74362467 260.83685158 172.88916016 261.03540039 C172.0108403 261.09069916 171.13252045 261.14599792 170.22758484 261.20297241 C165.58816854 261.53755909 161.59423745 262.15877859 157.22119141 263.88696289 C155.99604729 268.43685385 156.32308766 272.7268451 156.70947266 277.36352539 C156.77273239 278.17058929 156.83599213 278.9776532 156.90116882 279.80917358 C157.03649507 281.50888768 157.17538681 283.20832122 157.31762695 284.9074707 C157.53346412 287.50922311 157.73248096 290.11190141 157.93017578 292.71508789 C158.06392776 294.36881602 158.19865979 296.02246524 158.33447266 297.67602539 C158.42212639 298.84326645 158.42212639 298.84326645 158.5115509 300.03408813 C158.83347082 303.72752805 159.12545561 305.7433592 161.22119141 308.88696289 C163.94727308 309.02358537 166.41664 308.97620348 169.12353516 308.77758789 C169.91587051 308.73132263 170.70820587 308.68505737 171.52455139 308.63739014 C174.07039258 308.48504349 176.61425715 308.31109753 179.15869141 308.13696289 C180.83894599 308.03402079 182.51928475 307.93244277 184.19970703 307.83227539 C198.13602577 307.93640628 198.13602577 307.93640628 211.22119141 304.88696289 C212.4337968 301.2491467 212.37041232 297.92363637 212.34619141 294.13696289 C212.34208252 293.36288086 212.33797363 292.58879883 212.33374023 291.79125977 C212.30963836 289.15612175 212.26853732 286.52178586 212.22119141 283.88696289 C212.20330566 282.87569336 212.18541992 281.86442383 212.16699219 280.82250977 C212.100601 277.67643983 212.00885895 274.53212493 211.90869141 271.38696289 C211.88629395 270.37794922 211.86389648 269.36893555 211.84082031 268.3293457 C211.80520996 267.38929688 211.76959961 266.44924805 211.73291016 265.48071289 C211.70672607 264.64217773 211.68054199 263.80364258 211.65356445 262.93969727 C211.38824381 260.49287975 211.38824381 260.49287975 208.22119141 258.88696289 C205.82932699 258.88696289 203.5040153 258.97444371 201.12036133 259.13061523 Z M104.72119141 264.26196289 C102.81853516 264.36637695 102.81853516 264.36637695 100.87744141 264.47290039 C97.08033236 264.90291488 93.85207161 265.73593644 90.22119141 266.88696289 C90.74073544 275.98831997 92.1037664 284.83130848 93.75024414 293.78149414 C94.16410234 296.04151117 94.56312352 298.30384584 94.96142578 300.56665039 C95.22291431 302.00951871 95.48525184 303.45223349 95.74853516 304.89477539 C95.98306396 306.19044434 96.21759277 307.48611328 96.45922852 308.82104492 C96.96257603 311.97213724 96.96257603 311.97213724 99.22119141 313.88696289 C110.11780525 314.90477847 121.44573777 313.53087954 132.22119141 311.88696289 C132.55119141 311.55696289 132.88119141 311.22696289 133.22119141 310.88696289 C133.18141636 307.79062815 133.07300801 304.72753681 132.90869141 301.63696289 C132.86091553 300.70561523 132.81313965 299.77426758 132.76391602 298.81469727 C132.38942814 291.99501582 131.89351616 285.18954901 131.28369141 278.38696289 C131.17190552 277.07163574 131.17190552 277.07163574 131.05786133 275.72973633 C130.6486383 271.45107759 130.13913371 267.80309613 128.22119141 263.88696289 C120.37458977 263.78549821 112.55733761 263.82548881 104.72119141 264.26196289 Z " fill="#000000" transform="translate(57.77880859375,7.113037109375)"/>
<path d="M0 0 C8.67453992 6.98667091 13.42566711 15.23052003 16 26 C17.42928754 39.35367431 15.59755618 50.83471381 7.6953125 61.93359375 C0.91745585 70.19508262 -8.26619363 76.05331055 -19.05639648 77.22290039 C-32.70078508 77.94266249 -45.30608396 76.28000907 -56 67 C-61.76432825 61.06099514 -65.54767137 54.89732949 -68 47 C-68.19078125 46.41089844 -68.3815625 45.82179688 -68.578125 45.21484375 C-70.69583381 34.09687247 -69.63456198 22.37720688 -63.57421875 12.73046875 C-56.52933561 2.91860308 -47.28642776 -5.06987577 -35.25390625 -7.68359375 C-22.78222364 -9.43438455 -10.59743986 -6.86522356 0 0 Z M-41.375 22.5 C-45.18212316 28.35711255 -45.94606624 33.02034804 -45 40 C-42.49938969 46.23085956 -38.28910844 50.43019824 -32.25 53.3125 C-27.07383871 54.4074572 -22.64080138 54.28253974 -17.8203125 51.94140625 C-12.23139507 48.21897634 -8.95740837 43.40518284 -7 37 C-6.36439774 31.8035221 -7.66743617 27.99032838 -10.5625 23.6875 C-14.3449499 19.17557762 -18.39814378 16.60556602 -24.23046875 15.625 C-31.17233555 15.24265966 -36.60250317 17.47631912 -41.375 22.5 Z " fill="#000000" transform="translate(499,440)"/>
<path d="M0 0 C2.55128453 1.98834928 4.76583948 4.09963067 6.9296875 6.50390625 C8.198125 7.86515625 8.198125 7.86515625 9.4921875 9.25390625 C16.88594449 18.2570299 17.94245648 29.29169814 16.9296875 40.50390625 C14.70735113 52.07275445 9.1908401 62.10206727 -0.0703125 69.50390625 C-10.07695657 76.09401783 -20.09299344 79.0421885 -31.98828125 77.00390625 C-44.20055209 74.27974951 -53.83317418 68.67211374 -60.8203125 58.19140625 C-67.36569626 47.39005548 -69.92122212 35.46019454 -66.9453125 23.06640625 C-63.72054734 12.32718834 -57.36138704 3.18023067 -47.62109375 -2.51171875 C-31.28078002 -11.10365782 -15.26223356 -10.83564269 0 0 Z M-38.0703125 19.50390625 C-42.61532194 25.12298509 -44.54785501 30.22138293 -44.0703125 37.50390625 C-42.70822726 43.9769352 -39.57029872 47.8914153 -34.0703125 51.50390625 C-28.08070448 53.50044226 -21.34884195 53.58102926 -15.6328125 50.87890625 C-9.44037107 45.14432217 -9.44037107 45.14432217 -6.83203125 37.3046875 C-6.64794285 31.1328818 -7.39319478 26.56416 -11.0703125 21.50390625 C-15.12509633 17.24797127 -18.88420035 15.36660033 -24.7578125 15.19140625 C-29.96679046 15.27493214 -33.95982769 16.20638399 -38.0703125 19.50390625 Z " fill="#000000" transform="translate(219.0703125,440.49609375)"/>
</svg>
