<?xml version="1.0" encoding="UTF-8"?>
<svg xmlns="http://www.w3.org/2000/svg" xmlns:xlink="http://www.w3.org/1999/xlink" width="200px" height="188px" viewBox="0 0 199 188" version="1.1">
<g id="surface1">
<path style=" stroke:none;fill-rule:nonzero;fill:rgb(0%,0%,0%);fill-opacity:1;" d="M 20.90625 2.582031 C 22.261719 2.832031 23.621094 3.082031 24.980469 3.324219 C 26.039062 3.515625 27.09375 3.710938 28.148438 3.90625 C 28.648438 4 29.152344 4.089844 29.652344 4.179688 C 30.351562 4.308594 31.046875 4.4375 31.746094 4.570312 C 32.140625 4.640625 32.535156 4.714844 32.941406 4.789062 C 34.089844 5.101562 34.875 5.4375 35.820312 6.167969 C 36.5625 7.539062 36.78125 9.019531 37.058594 10.542969 C 37.105469 10.796875 37.148438 11.046875 37.195312 11.304688 C 37.347656 12.125 37.496094 12.949219 37.644531 13.773438 C 37.746094 14.347656 37.851562 14.917969 37.957031 15.492188 C 38.175781 16.691406 38.390625 17.890625 38.609375 19.089844 C 38.886719 20.628906 39.164062 22.167969 39.445312 23.707031 C 39.660156 24.890625 39.875 26.074219 40.089844 27.257812 C 40.191406 27.824219 40.296875 28.390625 40.398438 28.960938 C 40.542969 29.75 40.683594 30.542969 40.828125 31.332031 C 40.910156 31.785156 40.988281 32.234375 41.074219 32.699219 C 41.246094 33.753906 41.246094 33.753906 41.246094 34.480469 C 41.566406 34.476562 41.886719 34.476562 42.214844 34.476562 C 61.109375 34.453125 80.003906 34.433594 98.902344 34.421875 C 101.167969 34.421875 103.4375 34.421875 105.703125 34.417969 C 106.15625 34.417969 106.609375 34.417969 107.074219 34.417969 C 114.386719 34.414062 121.703125 34.40625 129.015625 34.394531 C 136.519531 34.382812 144.023438 34.378906 151.527344 34.375 C 156.15625 34.375 160.789062 34.371094 165.417969 34.359375 C 168.59375 34.355469 171.769531 34.355469 174.941406 34.355469 C 176.773438 34.355469 178.609375 34.355469 180.441406 34.347656 C 182.117188 34.34375 183.796875 34.34375 185.472656 34.347656 C 186.078125 34.347656 186.6875 34.347656 187.292969 34.34375 C 190.664062 34.324219 193.433594 34.324219 196.375 36.203125 C 198.117188 37.949219 198.726562 39.203125 198.765625 41.65625 C 198.714844 45.578125 197.902344 49.394531 197.195312 53.238281 C 197.042969 54.082031 196.890625 54.925781 196.742188 55.769531 C 196.339844 58.011719 195.929688 60.25 195.519531 62.492188 C 195.101562 64.804688 194.683594 67.117188 194.265625 69.425781 C 193.769531 72.175781 193.273438 74.925781 192.777344 77.675781 C 191.863281 82.71875 190.960938 87.761719 190.085938 92.8125 C 189.992188 93.351562 189.898438 93.886719 189.804688 94.425781 C 189.476562 96.328125 189.144531 98.234375 188.820312 100.140625 C 186.644531 112.867188 186.644531 112.867188 183.441406 115.414062 C 181.941406 116.140625 180.46875 116.335938 178.828125 116.488281 C 178.386719 116.53125 178.386719 116.53125 177.9375 116.574219 C 173.460938 117.003906 168.980469 117.347656 164.5 117.703125 C 161.507812 117.941406 158.515625 118.183594 155.523438 118.425781 C 155.058594 118.464844 155.058594 118.464844 154.582031 118.503906 C 150.042969 118.871094 145.507812 119.25 140.976562 119.648438 C 140.390625 119.699219 139.804688 119.75 139.21875 119.800781 C 138.332031 119.878906 137.449219 119.957031 136.5625 120.03125 C 121.503906 121.347656 106.433594 122.503906 91.355469 123.628906 C 90.960938 123.660156 90.566406 123.691406 90.160156 123.71875 C 89.371094 123.777344 88.582031 123.839844 87.792969 123.898438 C 80.582031 124.4375 73.375 124.996094 66.167969 125.574219 C 65.925781 125.59375 65.683594 125.613281 65.433594 125.632812 C 62.679688 125.855469 59.921875 126.078125 57.167969 126.300781 C 57.097656 126.519531 57.027344 126.738281 56.957031 126.964844 C 56.863281 127.253906 56.769531 127.542969 56.671875 127.839844 C 56.582031 128.128906 56.488281 128.414062 56.394531 128.707031 C 55.902344 130.058594 55.203125 131.261719 54.476562 132.492188 C 51.941406 136.394531 51.941406 136.394531 51.515625 140.824219 C 51.835938 141.859375 52.3125 142.375 53.1875 142.996094 C 54.367188 143.390625 55.226562 143.40625 56.46875 143.40625 C 56.933594 143.40625 57.394531 143.410156 57.871094 143.410156 C 58.386719 143.410156 58.902344 143.410156 59.417969 143.410156 C 59.964844 143.410156 60.511719 143.410156 61.054688 143.414062 C 62.558594 143.414062 64.0625 143.414062 65.566406 143.414062 C 67.1875 143.417969 68.808594 143.417969 70.429688 143.421875 C 73.238281 143.425781 76.046875 143.429688 78.855469 143.429688 C 83.296875 143.433594 87.734375 143.441406 92.171875 143.449219 C 93.691406 143.453125 95.207031 143.457031 96.726562 143.457031 C 97.292969 143.460938 97.292969 143.460938 97.875 143.460938 C 102.195312 143.46875 106.515625 143.476562 110.832031 143.480469 C 111.226562 143.480469 111.625 143.484375 112.03125 143.484375 C 118.433594 143.492188 124.835938 143.5 131.238281 143.507812 C 137.808594 143.511719 144.375 143.523438 150.945312 143.535156 C 155 143.546875 159.054688 143.550781 163.109375 143.550781 C 165.886719 143.550781 168.664062 143.554688 171.441406 143.5625 C 173.042969 143.570312 174.648438 143.570312 176.25 143.570312 C 177.71875 143.566406 179.183594 143.570312 180.652344 143.578125 C 181.183594 143.578125 181.714844 143.578125 182.246094 143.578125 C 182.96875 143.574219 183.6875 143.578125 184.410156 143.582031 C 184.8125 143.582031 185.210938 143.585938 185.625 143.585938 C 187.222656 143.789062 188.164062 144.503906 189.34375 145.558594 C 190.238281 147.117188 190.230469 148.496094 189.953125 150.253906 C 189.34375 151.523438 188.949219 152.207031 187.695312 152.847656 C 186.546875 153.207031 185.597656 153.25 184.394531 153.25 C 183.925781 153.253906 183.460938 153.253906 182.976562 153.257812 C 182.460938 153.253906 181.941406 153.253906 181.421875 153.253906 C 180.871094 153.253906 180.320312 153.253906 179.769531 153.257812 C 178.253906 153.261719 176.738281 153.261719 175.222656 153.257812 C 173.589844 153.257812 171.957031 153.261719 170.320312 153.261719 C 167.121094 153.269531 163.917969 153.269531 160.714844 153.269531 C 158.113281 153.265625 155.511719 153.269531 152.90625 153.269531 C 152.351562 153.269531 152.351562 153.269531 151.785156 153.269531 C 151.03125 153.269531 150.28125 153.269531 149.527344 153.273438 C 142.472656 153.277344 135.414062 153.273438 128.355469 153.273438 C 121.902344 153.269531 115.445312 153.273438 108.992188 153.28125 C 102.363281 153.289062 95.734375 153.292969 89.109375 153.289062 C 85.386719 153.289062 81.667969 153.289062 77.945312 153.296875 C 74.777344 153.300781 71.609375 153.300781 68.441406 153.296875 C 66.824219 153.292969 65.207031 153.292969 63.589844 153.296875 C 62.109375 153.300781 60.628906 153.300781 59.148438 153.296875 C 58.613281 153.292969 58.078125 153.296875 57.542969 153.296875 C 52.578125 153.324219 48.882812 152.574219 45.15625 149.164062 C 42.203125 146.105469 41.375 142.890625 41.441406 138.734375 C 41.574219 135.71875 42.503906 133.457031 43.957031 130.835938 C 44.121094 130.539062 44.285156 130.238281 44.453125 129.933594 C 44.78125 129.339844 45.117188 128.753906 45.460938 128.175781 C 47.9375 123.769531 46.242188 118.671875 45.371094 113.976562 C 45.230469 113.203125 45.089844 112.429688 44.949219 111.65625 C 44.648438 109.988281 44.34375 108.320312 44.035156 106.65625 C 43.292969 102.601562 42.558594 98.542969 41.824219 94.484375 C 41.648438 93.535156 41.476562 92.582031 41.304688 91.628906 C 39.359375 80.914062 37.46875 70.1875 35.589844 59.457031 C 35.300781 57.789062 35.007812 56.117188 34.714844 54.445312 C 34.3125 52.167969 33.914062 49.890625 33.515625 47.613281 C 33.363281 46.730469 33.207031 45.847656 33.054688 44.96875 C 32.207031 40.144531 31.371094 35.320312 30.558594 30.492188 C 30.339844 29.1875 30.117188 27.878906 29.894531 26.574219 C 29.691406 25.351562 29.488281 24.128906 29.285156 22.90625 C 29.160156 22.164062 29.035156 21.425781 28.910156 20.683594 C 28.855469 20.351562 28.800781 20.019531 28.746094 19.679688 C 28.425781 17.8125 28.015625 16.203125 27.136719 14.515625 C 25.988281 13.75 25.316406 13.597656 23.976562 13.359375 C 23.546875 13.285156 23.121094 13.207031 22.683594 13.128906 C 22.222656 13.046875 21.761719 12.96875 21.285156 12.886719 C 20.804688 12.800781 20.328125 12.714844 19.847656 12.628906 C 18.070312 12.308594 16.292969 11.996094 14.515625 11.683594 C 13.015625 11.417969 11.515625 11.152344 10.015625 10.882812 C 9.3125 10.753906 8.613281 10.632812 7.910156 10.511719 C 2.757812 9.585938 2.757812 9.585938 0.949219 7.917969 C 0.195312 6.601562 -0.0742188 5.507812 0 3.992188 C 0.589844 2.28125 1.394531 1.355469 2.894531 0.363281 C 7.722656 -1.417969 15.882812 1.648438 20.90625 2.582031 Z M 43.78125 44.277344 C 43.703125 46.25 43.867188 48.089844 44.230469 50.035156 C 44.300781 50.421875 44.300781 50.421875 44.371094 50.816406 C 44.46875 51.355469 44.566406 51.898438 44.667969 52.4375 C 44.820312 53.261719 44.96875 54.089844 45.117188 54.914062 C 45.210938 55.441406 45.308594 55.972656 45.40625 56.5 C 45.449219 56.742188 45.492188 56.988281 45.539062 57.242188 C 45.769531 58.464844 46 59.554688 46.675781 60.609375 C 47.523438 61.035156 48.023438 61.019531 48.96875 61.019531 C 49.457031 61.023438 49.457031 61.023438 49.953125 61.023438 C 50.304688 61.023438 50.65625 61.023438 51.019531 61.019531 C 51.378906 61.023438 51.738281 61.023438 52.105469 61.023438 C 52.867188 61.023438 53.628906 61.023438 54.390625 61.019531 C 55.558594 61.019531 56.726562 61.019531 57.894531 61.023438 C 58.632812 61.023438 59.371094 61.023438 60.109375 61.019531 C 60.460938 61.023438 60.8125 61.023438 61.175781 61.023438 C 61.660156 61.023438 61.660156 61.023438 62.15625 61.019531 C 62.441406 61.019531 62.726562 61.019531 63.023438 61.019531 C 63.6875 61.042969 63.6875 61.042969 64.042969 60.609375 C 64.277344 57.160156 63.984375 53.664062 63.746094 50.222656 C 63.722656 49.808594 63.695312 49.394531 63.671875 48.96875 C 63.640625 48.578125 63.613281 48.183594 63.582031 47.78125 C 63.558594 47.429688 63.535156 47.078125 63.507812 46.714844 C 63.207031 45.148438 63.207031 45.148438 62.234375 43.914062 C 60.882812 43.648438 59.550781 43.695312 58.183594 43.726562 C 57.78125 43.726562 57.382812 43.726562 56.972656 43.730469 C 55.695312 43.738281 54.417969 43.757812 53.140625 43.777344 C 52.277344 43.785156 51.414062 43.789062 50.550781 43.792969 C 48.976562 43.808594 47.402344 43.820312 45.828125 43.84375 C 45.351562 43.851562 45.351562 43.851562 44.863281 43.859375 C 44.140625 43.835938 44.140625 43.835938 43.78125 44.277344 Z M 72.726562 44.277344 C 72.558594 47.476562 72.792969 50.683594 73.042969 53.875 C 73.070312 54.285156 73.097656 54.695312 73.128906 55.117188 C 73.316406 57.9375 73.316406 57.9375 74.171875 60.609375 C 75.105469 61.078125 75.78125 61.023438 76.828125 61.027344 C 77.230469 61.027344 77.632812 61.03125 78.050781 61.03125 C 78.703125 61.035156 78.703125 61.035156 79.375 61.035156 C 79.820312 61.035156 80.269531 61.035156 80.726562 61.039062 C 81.675781 61.039062 82.621094 61.039062 83.566406 61.039062 C 84.539062 61.039062 85.515625 61.042969 86.488281 61.046875 C 87.882812 61.054688 89.28125 61.054688 90.679688 61.054688 C 91.335938 61.058594 91.335938 61.058594 92.003906 61.066406 C 92.410156 61.0625 92.8125 61.0625 93.226562 61.0625 C 93.582031 61.0625 93.941406 61.0625 94.308594 61.0625 C 95.226562 61.054688 95.226562 61.054688 95.882812 60.246094 C 95.949219 59.140625 95.972656 58.066406 95.964844 56.960938 C 95.964844 56.632812 95.964844 56.304688 95.964844 55.96875 C 95.964844 55.277344 95.960938 54.585938 95.957031 53.894531 C 95.949219 52.835938 95.949219 51.777344 95.949219 50.714844 C 95.945312 50.046875 95.945312 49.375 95.941406 48.703125 C 95.941406 48.386719 95.941406 48.066406 95.941406 47.742188 C 95.9375 47.445312 95.9375 47.148438 95.933594 46.84375 C 95.933594 46.585938 95.929688 46.324219 95.929688 46.058594 C 95.90625 45.285156 95.90625 45.285156 95.519531 44.277344 C 94.550781 43.792969 93.8125 43.867188 92.726562 43.867188 C 92.292969 43.867188 91.859375 43.867188 91.414062 43.863281 C 90.707031 43.867188 90.707031 43.867188 89.988281 43.867188 C 89.503906 43.867188 89.019531 43.867188 88.535156 43.867188 C 87.519531 43.867188 86.503906 43.867188 85.488281 43.867188 C 84.179688 43.871094 82.875 43.867188 81.570312 43.867188 C 80.570312 43.863281 79.570312 43.867188 78.566406 43.867188 C 77.851562 43.867188 77.136719 43.867188 76.417969 43.863281 C 75.769531 43.867188 75.769531 43.867188 75.109375 43.867188 C 74.726562 43.867188 74.34375 43.867188 73.949219 43.867188 C 73.105469 43.816406 73.105469 43.816406 72.726562 44.277344 Z M 105.289062 44.277344 C 105.25 45.398438 105.238281 46.511719 105.242188 47.636719 C 105.246094 47.972656 105.246094 48.3125 105.246094 48.660156 C 105.265625 51.140625 105.324219 53.617188 105.425781 56.097656 C 105.441406 56.578125 105.441406 56.578125 105.457031 57.070312 C 105.472656 57.371094 105.488281 57.671875 105.5 57.980469 C 105.511719 58.242188 105.523438 58.507812 105.535156 58.777344 C 105.667969 59.621094 105.980469 60.21875 106.375 60.972656 C 109.042969 61 111.714844 61.015625 114.386719 61.03125 C 115.625 61.035156 116.863281 61.042969 118.105469 61.054688 C 119.53125 61.070312 120.957031 61.074219 122.378906 61.078125 C 123.050781 61.085938 123.050781 61.085938 123.730469 61.097656 C 124.351562 61.097656 124.351562 61.097656 124.980469 61.097656 C 125.527344 61.101562 125.527344 61.101562 126.085938 61.105469 C 127.003906 61.042969 127.003906 61.042969 127.660156 60.519531 C 128.1875 59.730469 128.21875 59.28125 128.210938 58.332031 C 128.214844 58.023438 128.214844 57.710938 128.214844 57.390625 C 128.210938 57.054688 128.207031 56.722656 128.203125 56.375 C 128.203125 56.03125 128.199219 55.6875 128.199219 55.335938 C 128.199219 54.609375 128.191406 53.882812 128.183594 53.152344 C 128.175781 52.039062 128.171875 50.921875 128.167969 49.804688 C 128.164062 49.097656 128.160156 48.394531 128.15625 47.6875 C 128.15625 47.351562 128.152344 47.015625 128.152344 46.671875 C 128.148438 46.363281 128.144531 46.054688 128.140625 45.734375 C 128.136719 45.324219 128.136719 45.324219 128.132812 44.90625 C 128.152344 44.265625 128.152344 44.265625 127.722656 43.914062 C 127.035156 43.878906 126.347656 43.867188 125.660156 43.867188 C 125.21875 43.867188 124.777344 43.867188 124.324219 43.863281 C 123.839844 43.867188 123.355469 43.867188 122.871094 43.867188 C 122.378906 43.867188 121.882812 43.867188 121.390625 43.867188 C 120.355469 43.867188 119.320312 43.867188 118.285156 43.867188 C 116.953125 43.871094 115.625 43.867188 114.296875 43.867188 C 113.277344 43.863281 112.257812 43.867188 111.238281 43.867188 C 110.746094 43.867188 110.257812 43.867188 109.765625 43.867188 C 109.082031 43.863281 108.398438 43.867188 107.710938 43.867188 C 107.320312 43.867188 106.933594 43.867188 106.53125 43.867188 C 105.667969 43.816406 105.667969 43.816406 105.289062 44.277344 Z M 137.851562 44.640625 C 137.640625 45.578125 137.640625 45.578125 137.609375 46.691406 C 137.585938 47.113281 137.5625 47.539062 137.539062 47.976562 C 137.457031 50.335938 137.425781 52.691406 137.421875 55.050781 C 137.417969 55.550781 137.414062 56.046875 137.410156 56.542969 C 137.410156 57.011719 137.410156 57.480469 137.40625 57.960938 C 137.40625 58.382812 137.40625 58.804688 137.402344 59.238281 C 137.386719 60.296875 137.386719 60.296875 138.214844 60.972656 C 139.136719 61.078125 139.136719 61.078125 140.222656 61.054688 C 140.644531 61.054688 141.0625 61.054688 141.496094 61.054688 C 142.179688 61.050781 142.179688 61.050781 142.875 61.042969 C 143.574219 61.042969 143.574219 61.042969 144.285156 61.039062 C 145.519531 61.039062 146.757812 61.03125 147.992188 61.023438 C 149.253906 61.015625 150.515625 61.011719 151.777344 61.007812 C 154.25 61 156.726562 60.988281 159.199219 60.972656 C 159.867188 59.71875 160.054688 58.761719 160.152344 57.335938 C 160.183594 56.902344 160.214844 56.472656 160.246094 56.03125 C 160.273438 55.578125 160.300781 55.128906 160.332031 54.667969 C 160.363281 54.230469 160.394531 53.796875 160.425781 53.347656 C 160.628906 50.332031 160.792969 47.296875 160.648438 44.277344 C 160.019531 43.648438 159.15625 43.867188 158.300781 43.863281 C 157.878906 43.859375 157.453125 43.859375 157.015625 43.855469 C 156.554688 43.855469 156.09375 43.855469 155.617188 43.855469 C 155.148438 43.851562 154.675781 43.851562 154.191406 43.851562 C 153.195312 43.847656 152.195312 43.847656 151.195312 43.847656 C 149.917969 43.847656 148.636719 43.84375 147.359375 43.835938 C 146.140625 43.832031 144.921875 43.832031 143.703125 43.832031 C 143.242188 43.828125 142.78125 43.828125 142.304688 43.824219 C 141.878906 43.824219 141.453125 43.824219 141.015625 43.828125 C 140.640625 43.828125 140.265625 43.824219 139.875 43.824219 C 138.851562 43.847656 138.851562 43.847656 137.851562 44.640625 Z M 170.777344 44.277344 C 169.390625 49.179688 168.90625 55.558594 169.332031 60.609375 C 169.882812 61.164062 170.375 61.027344 171.144531 61.039062 C 171.453125 61.042969 171.761719 61.046875 172.078125 61.050781 C 172.582031 61.054688 172.582031 61.054688 173.09375 61.058594 C 173.605469 61.0625 173.605469 61.0625 174.128906 61.066406 C 174.855469 61.074219 175.582031 61.078125 176.308594 61.082031 C 177.417969 61.085938 178.53125 61.101562 179.644531 61.117188 C 180.347656 61.121094 181.050781 61.125 181.753906 61.128906 C 182.253906 61.136719 182.253906 61.136719 182.765625 61.148438 C 184.484375 61.175781 184.484375 61.175781 185.96875 60.4375 C 186.507812 59.097656 186.773438 57.753906 187.023438 56.335938 C 187.105469 55.871094 187.105469 55.871094 187.191406 55.398438 C 187.308594 54.746094 187.425781 54.097656 187.539062 53.445312 C 187.714844 52.445312 187.898438 51.449219 188.085938 50.453125 C 188.199219 49.820312 188.3125 49.1875 188.425781 48.554688 C 188.507812 48.109375 188.507812 48.109375 188.59375 47.652344 C 188.851562 46.121094 188.925781 45.253906 188.144531 43.914062 C 185.789062 43.90625 183.429688 43.898438 181.074219 43.894531 C 180.273438 43.894531 179.46875 43.890625 178.667969 43.886719 C 177.515625 43.882812 176.363281 43.882812 175.214844 43.878906 C 174.671875 43.875 174.671875 43.875 174.121094 43.875 C 173.789062 43.875 173.453125 43.875 173.113281 43.875 C 172.671875 43.871094 172.671875 43.871094 172.21875 43.871094 C 171.472656 43.871094 171.472656 43.871094 170.777344 44.277344 Z M 48.484375 70.046875 C 48.386719 72.261719 48.640625 74.324219 49.011719 76.503906 C 49.066406 76.832031 49.121094 77.164062 49.175781 77.503906 C 49.292969 78.195312 49.410156 78.890625 49.527344 79.582031 C 49.703125 80.640625 49.878906 81.699219 50.050781 82.757812 C 50.164062 83.433594 50.277344 84.109375 50.390625 84.785156 C 50.441406 85.097656 50.496094 85.414062 50.546875 85.738281 C 50.921875 87.9375 50.921875 87.9375 51.738281 90.007812 C 54.238281 91.261719 58.769531 90.347656 61.554688 90.234375 C 62.050781 90.21875 62.050781 90.21875 62.554688 90.199219 C 62.867188 90.1875 63.179688 90.171875 63.5 90.15625 C 63.78125 90.148438 64.058594 90.136719 64.347656 90.125 C 65.207031 89.996094 65.820312 89.710938 66.574219 89.28125 C 66.675781 85.847656 66.515625 82.453125 66.257812 79.027344 C 66.230469 78.632812 66.199219 78.238281 66.171875 77.832031 C 66.09375 73.441406 66.09375 73.441406 64.402344 69.683594 C 63.703125 69.574219 63.703125 69.574219 62.898438 69.59375 C 62.589844 69.59375 62.277344 69.59375 61.957031 69.59375 C 61.457031 69.597656 61.457031 69.597656 60.941406 69.601562 C 60.425781 69.601562 60.425781 69.601562 59.902344 69.601562 C 59.175781 69.601562 58.449219 69.605469 57.722656 69.609375 C 56.605469 69.617188 55.488281 69.617188 54.371094 69.617188 C 53.667969 69.617188 52.964844 69.621094 52.257812 69.621094 C 51.753906 69.621094 51.753906 69.621094 51.238281 69.625 C 50.777344 69.628906 50.777344 69.628906 50.304688 69.628906 C 50.03125 69.632812 49.757812 69.632812 49.476562 69.636719 C 48.835938 69.617188 48.835938 69.617188 48.484375 70.046875 Z M 75.621094 69.683594 C 74.847656 70.84375 74.8125 71.023438 74.902344 72.328125 C 74.921875 72.640625 74.941406 72.953125 74.960938 73.273438 C 74.988281 73.609375 75.011719 73.949219 75.039062 74.296875 C 75.0625 74.644531 75.085938 74.992188 75.109375 75.347656 C 75.160156 76.085938 75.210938 76.820312 75.265625 77.558594 C 75.347656 78.679688 75.421875 79.804688 75.496094 80.925781 C 75.546875 81.640625 75.597656 82.359375 75.648438 83.074219 C 75.671875 83.410156 75.691406 83.742188 75.714844 84.085938 C 75.828125 86.894531 75.828125 86.894531 77.066406 89.28125 C 77.578125 89.296875 78.09375 89.285156 78.605469 89.261719 C 79.097656 89.242188 79.097656 89.242188 79.597656 89.222656 C 79.957031 89.203125 80.316406 89.1875 80.683594 89.167969 C 81.054688 89.152344 81.421875 89.132812 81.800781 89.117188 C 84.628906 88.972656 87.449219 88.792969 90.273438 88.578125 C 90.652344 88.550781 91.027344 88.523438 91.417969 88.496094 C 91.773438 88.46875 92.132812 88.441406 92.5 88.410156 C 92.8125 88.386719 93.125 88.363281 93.449219 88.335938 C 94.660156 88.160156 95.796875 87.824219 96.96875 87.46875 C 96.933594 85.109375 96.894531 82.75 96.851562 80.394531 C 96.839844 79.59375 96.824219 78.789062 96.816406 77.988281 C 96.796875 76.835938 96.777344 75.683594 96.753906 74.53125 C 96.75 74.171875 96.746094 73.8125 96.742188 73.441406 C 96.734375 73.105469 96.726562 72.773438 96.722656 72.429688 C 96.714844 72.132812 96.710938 71.839844 96.707031 71.535156 C 96.648438 70.664062 96.648438 70.664062 95.882812 69.683594 C 94.996094 69.515625 94.996094 69.515625 93.953125 69.542969 C 93.546875 69.539062 93.144531 69.535156 92.730469 69.53125 C 92.292969 69.535156 91.855469 69.535156 91.40625 69.539062 C 90.957031 69.539062 90.511719 69.535156 90.050781 69.535156 C 88.859375 69.535156 87.671875 69.539062 86.480469 69.546875 C 85.75 69.546875 85.023438 69.546875 84.292969 69.542969 C 82.894531 69.535156 81.496094 69.535156 80.097656 69.539062 C 79.441406 69.535156 79.441406 69.535156 78.773438 69.53125 C 78.167969 69.539062 78.167969 69.539062 77.550781 69.542969 C 77.195312 69.542969 76.839844 69.542969 76.472656 69.546875 C 76.191406 69.589844 75.910156 69.636719 75.621094 69.683594 Z M 106.011719 70.410156 C 105.710938 73.339844 106.050781 76.429688 106.171875 79.371094 C 106.183594 79.71875 106.199219 80.066406 106.214844 80.425781 C 106.0625 84.179688 106.0625 84.179688 107.097656 87.46875 C 110.640625 87.628906 114.203125 87.421875 117.742188 87.195312 C 118.503906 87.148438 119.269531 87.105469 120.03125 87.0625 C 120.523438 87.03125 121.019531 87.003906 121.515625 86.972656 C 121.953125 86.945312 122.390625 86.917969 122.839844 86.890625 C 124.179688 86.730469 125.363281 86.476562 126.636719 86.015625 C 127.589844 84.578125 127.464844 83.335938 127.457031 81.671875 C 127.457031 81.351562 127.457031 81.03125 127.457031 80.703125 C 127.457031 80.03125 127.457031 79.355469 127.453125 78.683594 C 127.449219 77.648438 127.453125 76.613281 127.457031 75.582031 C 127.457031 74.925781 127.457031 74.273438 127.457031 73.617188 C 127.457031 73.308594 127.460938 72.996094 127.460938 72.675781 C 127.523438 71.007812 127.523438 71.007812 126.636719 69.683594 C 125.761719 69.570312 125.761719 69.570312 124.738281 69.589844 C 124.34375 69.585938 123.945312 69.585938 123.539062 69.582031 C 122.894531 69.585938 122.894531 69.585938 122.238281 69.585938 C 121.800781 69.585938 121.359375 69.585938 120.90625 69.585938 C 119.976562 69.585938 119.046875 69.585938 118.121094 69.589844 C 116.691406 69.59375 115.265625 69.589844 113.839844 69.585938 C 112.9375 69.585938 112.035156 69.585938 111.132812 69.585938 C 110.707031 69.585938 110.277344 69.585938 109.832031 69.582031 C 109.238281 69.585938 109.238281 69.585938 108.632812 69.589844 C 108.109375 69.589844 108.109375 69.589844 107.574219 69.589844 C 106.667969 69.601562 106.667969 69.601562 106.011719 70.410156 Z M 137.492188 69.683594 C 136.539062 71.117188 136.65625 72.363281 136.660156 74.027344 C 136.65625 74.347656 136.65625 74.667969 136.652344 74.996094 C 136.652344 75.667969 136.652344 76.34375 136.652344 77.015625 C 136.652344 78.050781 136.644531 79.085938 136.636719 80.117188 C 136.636719 80.773438 136.636719 81.425781 136.636719 82.082031 C 136.632812 82.390625 136.628906 82.703125 136.625 83.023438 C 136.621094 83.980469 136.621094 83.980469 136.765625 85.289062 C 138.136719 86.203125 139.125 86.054688 140.695312 85.953125 C 141.121094 85.929688 141.121094 85.929688 141.554688 85.90625 C 142.152344 85.871094 142.753906 85.835938 143.355469 85.800781 C 144.257812 85.746094 145.15625 85.695312 146.058594 85.648438 C 147.785156 85.550781 149.511719 85.425781 151.238281 85.289062 C 151.507812 85.269531 151.777344 85.25 152.058594 85.226562 C 152.8125 85.164062 153.566406 85.089844 154.320312 85.011719 C 154.75 84.96875 155.175781 84.925781 155.617188 84.882812 C 156.710938 84.652344 156.710938 84.652344 157.335938 83.785156 C 157.820312 82.582031 157.984375 81.542969 158.109375 80.253906 C 158.132812 80.019531 158.15625 79.785156 158.179688 79.542969 C 158.226562 79.046875 158.273438 78.554688 158.316406 78.058594 C 158.386719 77.308594 158.460938 76.554688 158.539062 75.800781 C 158.867188 72.90625 158.867188 72.90625 158.476562 70.046875 C 157.855469 69.421875 157.039062 69.628906 156.191406 69.625 C 155.78125 69.621094 155.371094 69.617188 154.949219 69.613281 C 154.5 69.613281 154.054688 69.609375 153.59375 69.609375 C 153.136719 69.609375 152.683594 69.605469 152.210938 69.601562 C 151.246094 69.601562 150.28125 69.597656 149.316406 69.597656 C 148.078125 69.59375 146.835938 69.585938 145.597656 69.574219 C 144.417969 69.566406 143.238281 69.566406 142.058594 69.5625 C 141.613281 69.558594 141.167969 69.554688 140.707031 69.550781 C 140.089844 69.550781 140.089844 69.550781 139.460938 69.554688 C 139.097656 69.550781 138.734375 69.550781 138.359375 69.550781 C 137.929688 69.617188 137.929688 69.617188 137.492188 69.683594 Z M 168.246094 70.410156 C 168.101562 71.382812 168 72.332031 167.925781 73.3125 C 167.890625 73.742188 167.890625 73.742188 167.851562 74.183594 C 167.800781 74.789062 167.753906 75.398438 167.707031 76.007812 C 167.636719 76.9375 167.558594 77.871094 167.480469 78.800781 C 167.429688 79.390625 167.382812 79.980469 167.335938 80.570312 C 167.3125 80.851562 167.289062 81.132812 167.265625 81.417969 C 167.117188 82.855469 167.117188 82.855469 167.523438 84.199219 C 169.269531 84.117188 171.019531 84.03125 172.769531 83.9375 C 174.003906 83.875 175.238281 83.816406 176.476562 83.769531 C 176.988281 83.75 177.503906 83.726562 178.015625 83.703125 C 178.46875 83.683594 178.925781 83.667969 179.394531 83.648438 C 180.660156 83.457031 181.082031 83.261719 181.996094 82.386719 C 182.355469 81.46875 182.355469 81.46875 182.53125 80.410156 C 182.609375 80.019531 182.683594 79.628906 182.765625 79.222656 C 182.839844 78.816406 182.914062 78.40625 182.988281 77.984375 C 183.070312 77.585938 183.148438 77.183594 183.230469 76.773438 C 183.664062 74.496094 183.929688 72.363281 183.804688 70.046875 C 183.039062 69.277344 181.328125 69.625 180.265625 69.621094 C 179.945312 69.621094 179.628906 69.621094 179.300781 69.617188 C 178.625 69.617188 177.945312 69.617188 177.269531 69.617188 C 176.234375 69.617188 175.195312 69.609375 174.160156 69.601562 C 173.503906 69.601562 172.847656 69.601562 172.191406 69.601562 C 171.882812 69.597656 171.570312 69.59375 171.25 69.59375 C 169.574219 69.519531 169.574219 69.519531 168.246094 70.410156 Z M 171.320312 92.546875 C 170.851562 92.582031 170.378906 92.617188 169.894531 92.652344 C 168.742188 92.738281 167.589844 92.824219 166.4375 92.910156 C 165.667969 95.1875 165.484375 97.421875 165.304688 99.808594 C 165.273438 100.191406 165.242188 100.574219 165.210938 100.964844 C 165.128906 102.03125 165.054688 103.097656 164.988281 104.164062 C 164.96875 104.425781 164.949219 104.691406 164.929688 104.960938 C 164.890625 105.890625 164.921875 106.570312 165.34375 107.410156 C 166.550781 108.039062 167.789062 107.832031 169.105469 107.722656 C 169.539062 107.691406 169.539062 107.691406 169.980469 107.660156 C 173.679688 107.425781 173.679688 107.425781 177.289062 106.703125 C 178.09375 105.496094 178.238281 104.714844 178.480469 103.292969 C 178.601562 102.605469 178.601562 102.605469 178.722656 101.902344 C 178.78125 101.542969 178.78125 101.542969 178.84375 101.175781 C 178.964844 100.449219 179.089844 99.726562 179.214844 99 C 179.585938 96.824219 179.914062 94.765625 179.824219 92.546875 C 179.414062 92.054688 179.414062 92.054688 178.320312 92.140625 C 175.980469 92.167969 173.652344 92.371094 171.320312 92.546875 Z M 151.253906 93.371094 C 150.945312 93.386719 150.632812 93.402344 150.3125 93.417969 C 149.652344 93.449219 148.992188 93.484375 148.335938 93.515625 C 147.335938 93.570312 146.335938 93.613281 145.335938 93.660156 C 144.691406 93.691406 144.050781 93.726562 143.410156 93.757812 C 143.113281 93.769531 142.816406 93.785156 142.511719 93.796875 C 139.265625 93.929688 139.265625 93.929688 136.410156 95.300781 C 135.855469 96.625 135.910156 97.921875 135.9375 99.335938 C 135.9375 99.640625 135.941406 99.945312 135.941406 100.257812 C 135.949219 101.226562 135.960938 102.195312 135.976562 103.164062 C 135.980469 103.820312 135.984375 104.480469 135.992188 105.136719 C 136.003906 106.75 136.019531 108.359375 136.042969 109.96875 C 137.117188 110.328125 137.617188 110.347656 138.71875 110.25 C 139.039062 110.226562 139.359375 110.199219 139.6875 110.171875 C 140.03125 110.140625 140.378906 110.109375 140.734375 110.074219 C 141.089844 110.042969 141.445312 110.011719 141.8125 109.980469 C 142.5625 109.914062 143.316406 109.847656 144.066406 109.777344 C 145.21875 109.675781 146.367188 109.574219 147.515625 109.476562 C 148.25 109.414062 148.980469 109.347656 149.710938 109.28125 C 150.226562 109.238281 150.226562 109.238281 150.75 109.191406 C 153.367188 109.039062 153.367188 109.039062 155.582031 107.792969 C 155.773438 106.519531 155.859375 105.238281 155.964844 103.957031 C 156 103.582031 156.03125 103.207031 156.0625 102.820312 C 156.3125 99.75 156.386719 96.714844 156.304688 93.636719 C 154.601562 93.183594 152.996094 93.28125 151.253906 93.371094 Z M 110.355469 95.816406 C 110.046875 95.835938 109.738281 95.859375 109.417969 95.882812 C 108.566406 95.945312 108.566406 95.945312 107.460938 96.175781 C 106.316406 97.894531 106.660156 99.800781 106.714844 101.804688 C 106.730469 102.457031 106.742188 103.109375 106.75 103.757812 C 106.769531 104.882812 106.796875 106.007812 106.828125 107.132812 C 106.832031 107.496094 106.835938 107.863281 106.84375 108.238281 C 106.855469 108.582031 106.867188 108.925781 106.878906 109.28125 C 106.886719 109.589844 106.894531 109.894531 106.902344 110.214844 C 107.175781 111.382812 107.574219 111.8125 108.546875 112.507812 C 109.664062 112.660156 109.664062 112.660156 110.910156 112.53125 C 111.378906 112.5 111.847656 112.46875 112.332031 112.433594 C 112.832031 112.390625 113.335938 112.347656 113.835938 112.304688 C 114.34375 112.265625 114.855469 112.230469 115.363281 112.191406 C 119.039062 111.902344 122.664062 111.441406 126.273438 110.695312 C 126.640625 107.210938 126.675781 103.738281 126.679688 100.238281 C 126.683594 99.777344 126.683594 99.316406 126.6875 98.839844 C 126.6875 98.410156 126.683594 97.976562 126.683594 97.53125 C 126.683594 96.945312 126.683594 96.945312 126.683594 96.34375 C 126.738281 95.472656 126.738281 95.472656 126.273438 95.089844 C 121.003906 94.710938 115.601562 95.378906 110.355469 95.816406 Z M 93.675781 96.628906 C 93.378906 96.648438 93.082031 96.667969 92.773438 96.6875 C 91.417969 96.777344 90.058594 96.871094 88.703125 96.964844 C 87.988281 97.015625 87.273438 97.0625 86.558594 97.109375 C 85.527344 97.175781 84.492188 97.25 83.460938 97.320312 C 83.140625 97.339844 82.824219 97.359375 82.496094 97.382812 C 80.816406 97.503906 79.375 97.726562 77.789062 98.355469 C 77.347656 100.007812 77.464844 101.5625 77.605469 103.246094 C 77.628906 103.539062 77.652344 103.832031 77.675781 104.132812 C 77.722656 104.75 77.773438 105.367188 77.824219 105.984375 C 77.902344 106.929688 77.976562 107.875 78.046875 108.816406 C 78.097656 109.417969 78.144531 110.019531 78.195312 110.617188 C 78.226562 111.042969 78.226562 111.042969 78.257812 111.472656 C 78.375 112.816406 78.480469 113.546875 79.238281 114.6875 C 80.222656 114.738281 81.117188 114.71875 82.097656 114.648438 C 82.382812 114.628906 82.671875 114.613281 82.964844 114.597656 C 83.886719 114.542969 84.808594 114.476562 85.726562 114.414062 C 86.335938 114.378906 86.945312 114.339844 87.550781 114.304688 C 92.59375 114.34375 92.59375 114.34375 97.328125 113.234375 C 97.769531 111.914062 97.746094 110.707031 97.734375 109.332031 C 97.734375 109.054688 97.734375 108.773438 97.730469 108.484375 C 97.722656 107.527344 97.707031 106.570312 97.691406 105.613281 C 97.683594 105.246094 97.679688 104.878906 97.671875 104.5 C 97.648438 103.359375 97.613281 102.21875 97.578125 101.078125 C 97.570312 100.710938 97.5625 100.34375 97.554688 99.96875 C 97.539062 99.625 97.527344 99.285156 97.515625 98.933594 C 97.503906 98.628906 97.496094 98.324219 97.484375 98.011719 C 97.390625 97.125 97.390625 97.125 96.242188 96.539062 C 95.378906 96.539062 94.535156 96.574219 93.675781 96.628906 Z M 58.796875 98.492188 C 58.105469 98.527344 58.105469 98.527344 57.40625 98.566406 C 56.03125 98.722656 54.863281 99.027344 53.550781 99.445312 C 53.738281 102.746094 54.230469 105.957031 54.824219 109.203125 C 54.976562 110.023438 55.121094 110.847656 55.265625 111.667969 C 55.359375 112.191406 55.453125 112.714844 55.550781 113.238281 C 55.632812 113.707031 55.71875 114.179688 55.804688 114.664062 C 55.988281 115.808594 55.988281 115.808594 56.804688 116.5 C 60.75 116.871094 64.847656 116.371094 68.746094 115.777344 C 68.863281 115.65625 68.984375 115.535156 69.105469 115.414062 C 69.09375 114.289062 69.054688 113.175781 68.996094 112.054688 C 68.976562 111.71875 68.960938 111.378906 68.941406 111.03125 C 68.804688 108.554688 68.625 106.085938 68.40625 103.617188 C 68.367188 103.140625 68.367188 103.140625 68.324219 102.652344 C 68.175781 101.101562 67.992188 99.777344 67.296875 98.355469 C 64.460938 98.320312 61.628906 98.332031 58.796875 98.492188 Z M 58.796875 98.492188 "/>
<path style=" stroke:none;fill-rule:nonzero;fill:rgb(0%,0%,0%);fill-opacity:1;" d="M 180.546875 159.691406 C 183.6875 162.226562 185.40625 165.21875 186.335938 169.128906 C 186.851562 173.972656 186.191406 178.140625 183.332031 182.167969 C 180.878906 185.167969 177.554688 187.292969 173.652344 187.71875 C 168.714844 187.980469 164.15625 187.375 160.285156 184.007812 C 158.199219 181.851562 156.832031 179.617188 155.945312 176.75 C 155.875 176.535156 155.804688 176.320312 155.734375 176.101562 C 154.96875 172.066406 155.351562 167.8125 157.546875 164.3125 C 160.09375 160.75 163.4375 157.851562 167.792969 156.902344 C 172.304688 156.265625 176.714844 157.199219 180.546875 159.691406 Z M 165.578125 167.855469 C 164.199219 169.984375 163.921875 171.675781 164.265625 174.207031 C 165.171875 176.46875 166.695312 177.992188 168.878906 179.039062 C 170.75 179.4375 172.355469 179.390625 174.097656 178.542969 C 176.121094 177.191406 177.304688 175.445312 178.015625 173.121094 C 178.246094 171.234375 177.773438 169.851562 176.726562 168.289062 C 175.355469 166.652344 173.890625 165.71875 171.78125 165.363281 C 169.269531 165.222656 167.304688 166.035156 165.578125 167.855469 Z M 165.578125 167.855469 "/>
<path style=" stroke:none;fill-rule:nonzero;fill:rgb(0%,0%,0%);fill-opacity:1;" d="M 79.261719 159.871094 C 80.1875 160.59375 80.988281 161.359375 81.769531 162.230469 C 82.230469 162.726562 82.230469 162.726562 82.699219 163.230469 C 85.375 166.496094 85.753906 170.503906 85.390625 174.570312 C 84.585938 178.769531 82.589844 182.410156 79.238281 185.097656 C 75.617188 187.488281 71.992188 188.558594 67.691406 187.820312 C 63.269531 186.828125 59.785156 184.792969 57.257812 180.992188 C 54.890625 177.070312 53.964844 172.742188 55.042969 168.242188 C 56.207031 164.34375 58.507812 161.023438 62.035156 158.960938 C 67.945312 155.839844 73.742188 155.9375 79.261719 159.871094 Z M 65.488281 166.949219 C 63.84375 168.988281 63.144531 170.839844 63.316406 173.484375 C 63.8125 175.832031 64.945312 177.253906 66.9375 178.5625 C 69.101562 179.289062 71.539062 179.316406 73.605469 178.335938 C 75.847656 176.253906 75.847656 176.253906 76.792969 173.410156 C 76.859375 171.171875 76.589844 169.511719 75.257812 167.675781 C 73.792969 166.132812 72.429688 165.449219 70.304688 165.382812 C 68.421875 165.414062 66.976562 165.753906 65.488281 166.949219 Z M 65.488281 166.949219 "/>
</g>
</svg>
